<svg xmlns="http://www.w3.org/2000/svg" width="512px" height="512px" viewBox="0 0 512 512" data-bbox="26.764588923968788 195.87804068220478 457.9541505990775 123.20149270050783" style="overflow: visible;"><rect data-uid="o-f1e5fb5c7dc749439f43ce086cc9a379" data-fl-background="" x="0" y="0" width="512" height="512" fill="#ffffff"></rect><g transform="matrix(0.8754898905754089, 0, 0, 0.8754898905754089, 8.624446868896484, 176.40713500976562)" data-uid="o-99a54bbee2e4443ea03f984fb3107a4f">
<!-- <svg id="OBJECTS" xmlns="http://www.w3.org/2000/svg" viewBox="0 0 185.21 185.21" width="185.21" height="185.21" data-uid="o-d6d02a11fd294f94b9d15cfe88ca74c4"><path class="cls-4" d="m85.99 120.54c1.6.91 2.16 2.94 1.25 4.54-.47.82-1.23 1.37-2.08 1.58l-35.93 10.92c-.81.25-1.65.17-2.36-.16h0s-13.85-6.39-13.85-6.39l-.88.45c11.13 15.47 11.13 15.68 11.13 15.68l109.99-35.17c-.86-.96-3-1.97-3.82-2.33-8.91-4.01-21.66.26-32.31 3.83l-1.45.49c-1.93.65-3.14 1.01-4.07 1.22-1.15.26-1.85.28-2.7.25-1.52-.06-2.93-.47-6.28-1.44-.88-.26-1.97-.57-4.38-1.25l-39.5-11.12c-2.61-.73-4.67-1.18-6.28-1.41-1.41-.2-2.38-.23-3.02-.14l8.04 4.18c.11.06.21.12.31.18l28.19 16.07Z" fill-rule="evenodd" fill="rgba(119,218,248,1)" data-uid="o-da1e55c7395d4895be095c12a590d094"></path><path class="cls-1" d="m66.69 77.83c-9.2.35-3.75-9.76-1.03-14.06-.3.31-.48.49-.49.49-.11.11-.21.23-.3.35-.61.85-11.55 16.34-.2 15.91 2.57-.1 5.19-1.36 7.92-2.67 1.85-.89 3.76-1.81 5.53-2.27 5.8-1.52 7.98-.8 8.47.8.64 2.09-.49 5.74-1.41 8.63-.52 1.64-1.07 3.42-1.61 5.34-.53 1.88-1.02 3.78-1.42 5.62-.22 1.01.29 2.01 1.16 2.45-.04.16-.07.32-.11.48l1.38.39c.19-.99.44-2.22.75-3.57 0 0 0 0 0 0-.73-.38-1.2-1.13-1.21-1.96 0-.03 0-.06 0-.1 0-.13.02-.26.05-.4.4-1.84.89-3.75 1.42-5.62.54-1.92 1.09-3.7 1.61-5.34.91-2.88 2.05-6.54 1.41-8.63-.49-1.59-2.67-2.32-8.47-.8-1.77.47-3.68 1.38-5.53 2.27-2.73 1.31-5.35 2.57-7.92 2.67h0Zm51.24-32.71c1.72.22 3.32.82 4.96 1.44 2.55.96 5.2 1.96 7.87.77-.26-.27-.52-.53-.79-.8-10.87-10.87-25.9-17.6-42.49-17.6-7.96 0-15.55 1.55-22.5 4.35 3.48 1.46 6.23 3.02 8.33 4.69 4.56-1.25 9.35-1.91 14.3-1.91 4.21 0 8.31.48 12.24 1.39.15-.17.31-.35.48-.52.86-.92 1.84-1.83 2.96-2.71.96-.76 2.36-.6 3.12.36.76.96.6 2.36-.37 3.12-.91.72-1.73 1.48-2.48 2.27-.72.76-1.36 1.56-1.94 2.36-2.18 3.05-3.37 3.91-3.22 4.02.2.14 1.27.05 2.87-.15.55-.62 1.31-1.53 2.26-2.86.58-.8 1.22-1.6 1.94-2.36.37-.39.76-.78 1.16-1.15 3.99 1.33 7.78 3.11 11.29 5.29h0Zm17.09 21.65c4.27 7.74 6.7 16.64 6.7 26.1 0 2.03-.11 4.04-.33 6.02 1.81-.03 3.59.06 5.32.33.19-1.12.35-2.25.48-3.39.25-2.2.38-4.47.38-6.81 0-14.55-5.17-27.89-13.77-38.28-.02.01-.04.03-.07.04-2.76 1.65-5.24 1.84-7.57 1.43 2.12 2.15 4.06 4.48 5.79 6.96 1.25.09 2.55.27 3.87.54 1.2.25 1.98 1.42 1.73 2.62-.25 1.2-1.42 1.98-2.62 1.73-2.01-.42-3.94-.58-5.71-.49-2.62.14-4.9.85-6.62 2.17-1.67 1.28-2.87 3.19-3.4 5.77-.27 1.32-.38 2.81-.29 4.48 0 .08 0 .17.01.25.05-.72.14-1.4.27-2.04.53-2.58 1.73-4.48 3.4-5.77 1.72-1.32 4-2.04 6.62-2.17 1.77-.09 3.69.08 5.71.49.03 0 .06.01.08.02h0Zm-62.49-23.43c1.89 2.21 2.35 4.56 1.8 7-.73 3.25-3.02 6.51-4.81 8.67 1.21-1.8 2.32-3.89 2.79-5.98.55-2.44.09-4.79-1.8-7-1.06-1.24-2.55-2.45-4.53-3.62-10.69 4.15-19.73 11.61-25.87 21.11-.37-.02-.74-.05-1.1-.09-1.22-.12-2.31.77-2.43 1.99-.11 1.13.65 2.15 1.73 2.39-3.1 6.82-4.82 14.39-4.82 22.36 0 14.88 6.01 28.36 15.73 38.14l-11.2-5.17c-3.39-4.9-6.07-10.33-7.89-16.12-1.78-5.67-2.74-11.72-2.74-18.01 0-16.59 6.73-31.61 17.6-42.49 4.27-4.27 9.18-7.9 14.57-10.73.22.2.48.36.77.47 6.15 2.18 10.05 4.56 12.2 7.08Z" fill="#fff" fill-rule="evenodd" data-uid="o-e01347c75e0a40d29d9897fc62362282"></path><path class="cls-3" d="m105.68 46.89c3.68-.5 8.39-1.15 13.49-.82.09 0 .18.01.27.02-3.93-2.62-8.23-4.73-12.8-6.25-.41.38-.8.76-1.16 1.15-.72.76-1.36 1.56-1.94 2.36-2.18 3.05-3.37 3.91-3.22 4.02.29.21 2.44-.08 5.36-.48Z" fill-rule="evenodd" fill="rgba(158,255,103,1)" data-uid="o-9bd4215b4d704de19b20c40946864884"></path><path class="cls-3" d="m83.58 90.36c.54-1.92 1.09-3.7 1.61-5.34.91-2.89 2.05-6.54 1.41-8.63-.49-1.59-2.67-2.32-8.47-.8-1.77.47-3.68 1.38-5.53 2.27-2.73 1.31-5.35 2.57-7.92 2.67-11.35.43-.4-15.06.2-15.91.09-.13.18-.24.3-.35.02-.02 5.88-5.64 7.14-11.23.55-2.44.09-4.79-1.8-7-1.06-1.24-2.55-2.45-4.53-3.62-11.69 4.54-21.4 13.03-27.52 23.83 2.35.12 4.68.01 6.45-.08 1.55-.08 2.74-.13 3.46 0 1.1.19 2.11.8 2.82 1.72.41.53.72 1.16.88 1.85.15.67.18 1.4.05 2.16-.3 1.7-2.49 2.13-4.9 3.99-2.02 1.57-2.41 4.68-3.18 6.31-.69 1.46-.82 3.01-.29 4.66.38 1.2 1.21 2.5 2.57 3.8 1.09 1.05 2.51 2.08 4.3 3.06.51.04 1.05.1 1.63.18 1.91.27 4.27.78 7.16 1.59l23.15 6.52c.19-.99.44-2.22.75-3.57-.88-.45-1.38-1.44-1.16-2.45.4-1.84.89-3.75 1.42-5.62Z" fill-rule="evenodd" fill="rgba(158,255,103,1)" data-uid="o-cb92ec91e0c242e996369b7d15c2b499"></path><path class="cls-3" d="m120.08 86.68c.81 4.34-.81 2.86-1.05 7.63-.18 3.76.27 7.58-.05 12.12 7.08-2.34 14.78-4.63 22.03-4.83.46-2.84.7-5.75.7-8.72 0-9.47-2.43-18.36-6.7-26.1-.03 0-.06 0-.08-.02-2.01-.42-3.94-.58-5.71-.49-2.62.14-4.9.85-6.62 2.17-1.67 1.28-2.87 3.19-3.4 5.77-.27 1.32-.38 2.81-.29 4.48.13 2.46.63 5.17 1.16 8Z" fill-rule="evenodd" fill="rgba(158,255,103,1)" data-uid="o-1193452ff40d4824aa658ead95b837d2"></path><path class="cls-2" d="m146.06 102.5c.5-2.18.88-4.41 1.14-6.68.25-2.2.38-4.47.38-6.81 0-16.59-6.73-31.61-17.6-42.49-10.87-10.87-25.9-17.6-42.49-17.6s-31.61 6.73-42.49 17.6c-10.87 10.87-17.6 25.9-17.6 42.49 0 6.29.96 12.33 2.74 18.01 1.84 5.87 4.57 11.36 8.02 16.32l-5.48 3.81c-3.83-5.49-6.86-11.6-8.91-18.15-1.98-6.32-3.05-13.04-3.05-19.99 0-18.44 7.47-35.13 19.56-47.21 12.08-12.08 28.78-19.56 47.21-19.56s35.13 7.47 47.21 19.56c12.08 12.08 19.56 28.78 19.56 47.21 0 2.52-.15 5.03-.43 7.54-.28 2.52-.71 5-1.27 7.43l-6.5-1.49Z" fill-rule="evenodd" fill="rgba(0,0,0,1)" data-uid="o-713a4ffd34ce48b3b32e34e5fea5fb7e"></path><path class="cls-2" d="m66.03 149.17c-1.75.55-3.62-.42-4.18-2.17-.55-1.75.42-3.62 2.17-4.18l93.19-29.6c-.46-.7-1.11-1.51-1.87-2.36-8.53-9.43-24.44-4.1-37.3.2l-1.45.49c-1.93.64-3.14 1.01-4.07 1.22-1.15.26-1.85.28-2.7.25-1.52-.06-2.93-.47-6.28-1.44-.88-.26-1.97-.57-4.38-1.25l-39.5-11.12c-2.61-.73-4.67-1.18-6.28-1.41-1.41-.2-2.38-.23-3.02-.14l8.04 4.18c.11.06.21.12.31.18l28.19 16.07c1.6.91 2.16 2.94 1.25 4.54-.47.82-1.23 1.37-2.08 1.59l-35.93 10.92c-.81.25-1.65.17-2.36-.16h0s-13.85-6.39-13.85-6.39l-2.74 1.41 4.94 8.4c.93 1.59.4 3.63-1.19 4.56-1.59.93-3.63.4-4.56-1.19l-6.63-11.28c-.07-.1-.13-.2-.18-.31-.84-1.64-.2-3.65 1.44-4.49l7.22-3.73c.9-.5 2.01-.57 3.01-.11l14.18 6.55 27.45-8.34-21.48-12.24-12.72-6.61h0c-1.34-.7-2.08-2.24-1.7-3.77 0-.01 1.08-4.84 7.81-6.26 1.33-.28 3.12-.31 5.49.02 1.91.27 4.27.78 7.16 1.59l39.5 11.12c1.17.33 2.96.85 4.43 1.28 2.8.81 3.97 1.15 4.69 1.18.31.01.57 0 1.01-.1.65-.15 1.66-.46 3.39-1.03l1.45-.49c14.7-4.92 32.89-11.02 44.35 1.65 1.72 1.9 3.12 3.9 3.77 5.64.05.12.1.24.14.37.28.87.38 1.73.28 2.55-.14 1.15-.62 2.14-1.51 2.95-.54.49-1.17.85-1.9 1.08h0s-95.02 30.17-95.02 30.17Z" fill-rule="evenodd" fill="rgba(0,0,0,1)" data-uid="o-59961b9c3edd40bf924265102c5dc5fe"></path><path class="cls-2" d="m47.47 162.86c-1.17.37-2.42-.29-2.79-1.46-.36-1.17.29-2.42 1.46-2.78l66.02-20.75c1.17-.37 2.42.29 2.79 1.46.36 1.17-.29 2.42-1.46 2.79l-66.02 20.75Z" fill-rule="evenodd" fill="rgba(0,0,0,1)" data-uid="o-317c08a6d25945ccb8008977e2fee16f"></path><path class="cls-2" d="m60.34 36.26c-1.16-.41-1.77-1.68-1.36-2.84.41-1.16 1.68-1.77 2.84-1.36 6.93 2.46 11.45 5.29 14.1 8.38 2.91 3.4 3.62 7.06 2.76 10.86-1.42 6.3-7.22 12.28-8.24 13.3-.86 1.21-6.18 8.86-3.89 8.78 1.64-.06 3.85-1.12 6.16-2.23 2.05-.98 4.16-1.99 6.34-2.57 8.93-2.34 12.63-.12 13.83 3.79 1.05 3.41-.31 7.81-1.41 11.28-.54 1.72-1.09 3.5-1.57 5.21-.5 1.76-.96 3.56-1.35 5.36-.26 1.2-1.44 1.97-2.65 1.71-1.2-.26-1.97-1.44-1.71-2.65.4-1.84.89-3.75 1.42-5.62.54-1.92 1.09-3.7 1.61-5.34.91-2.88 2.05-6.54 1.41-8.63-.49-1.59-2.67-2.32-8.47-.8-1.77.47-3.68 1.38-5.53 2.27-2.73 1.31-5.35 2.57-7.92 2.67-11.35.43-.4-15.06.2-15.91.09-.13.18-.24.3-.35.02-.02 5.88-5.64 7.14-11.23.55-2.44.09-4.79-1.8-7-2.15-2.51-6.05-4.89-12.2-7.08h0Zm-6.53 55.37c-2.34-1.15-4.14-2.4-5.46-3.66-1.36-1.31-2.19-2.6-2.57-3.8-.52-1.65-.39-3.2.29-4.66.77-1.63 2.22-3.23 4.25-4.79 2.41-1.86 3.53-3.81 3.83-5.51.13-.77.11-1.5-.05-2.16-.16-.7-.47-1.32-.88-1.85-.71-.92-1.71-1.52-2.82-1.72-.72-.13-1.9-.07-3.46 0-2.15.1-5.11.25-7.93-.04-1.22-.12-2.31.77-2.43 1.99-.12 1.22.77 2.31 1.99 2.43 3.14.32 6.29.16 8.58.05 1.25-.06 2.2-.11 2.48-.06.02 0 .05.02.07.05.02.03.05.08.06.15.02.1.02.23 0 .39-.13.72-.75 1.67-2.16 2.76-2.57 1.99-4.47 4.12-5.55 6.43-1.17 2.48-1.39 5.1-.5 7.88.6 1.89 1.8 3.83 3.72 5.67 1.63 1.56 3.8 3.08 6.59 4.45 1.1.54 2.43.08 2.97-1.02.54-1.1.08-2.43-1.02-2.97Z" fill-rule="evenodd" fill="rgba(0,0,0,1)" data-uid="o-9d6b6c18527944c2b64a03c3af655aab"></path><path class="cls-2" d="m103.29 34.22c.96-.76 2.36-.6 3.12.37.76.96.6 2.36-.37 3.12-.91.72-1.73 1.48-2.48 2.27-.72.76-1.36 1.56-1.94 2.36-2.18 3.05-3.37 3.91-3.22 4.02.29.21 2.44-.08 5.36-.48 3.68-.5 8.39-1.15 13.49-.82 1.98.13 3.79.81 5.63 1.5 2.77 1.05 5.66 2.14 8.57.41 1.05-.63 2.42-.29 3.05.77.63 1.05.29 2.42-.77 3.05-4.75 2.83-8.67 1.36-12.42-.06-1.53-.58-3.02-1.14-4.34-1.22-4.68-.3-9.13.31-12.62.78-3.93.54-6.82.93-8.54-.3-2.31-1.65-1.88-4.55 2.19-10.24.66-.93 1.43-1.87 2.32-2.81.86-.91 1.84-1.83 2.96-2.71Z" fill-rule="evenodd" fill="rgba(0,0,0,1)" data-uid="o-a04b97e177384f0c88423e1e5b0de7dc"></path><path class="cls-2" d="m135.83 59.71c1.2.25 1.98 1.42 1.73 2.62-.25 1.2-1.42 1.98-2.62 1.73-2.01-.42-3.94-.58-5.71-.49-2.62.14-4.9.85-6.62 2.17-1.67 1.28-2.86 3.19-3.4 5.77-.27 1.32-.38 2.81-.29 4.48.13 2.46.63 5.17 1.16 8 .81 4.34 1.66 8.93 1.42 13.7-.06 1.23-1.1 2.17-2.32 2.12-1.23-.06-2.17-1.1-2.11-2.32.21-4.27-.59-8.6-1.36-12.69-.55-2.98-1.09-5.83-1.23-8.57-.11-2.05.03-3.92.38-5.6.77-3.7 2.54-6.49 5.05-8.41 2.46-1.88 5.57-2.89 9.09-3.08 2.14-.11 4.44.09 6.82.58Z" fill-rule="evenodd" fill="rgba(0,0,0,1)" data-uid="o-613e343c8be0419b835da2600234f754"></path><path class="cls-4" d="m115.92 104.76c1.01-.34 2.03-.68 3.07-1.02.08-1.09.16-2.45.24-3.93h-.05c-1.23-.06-2.17-1.1-2.12-2.33.21-4.27-.59-8.6-1.36-12.69-.55-2.98-1.09-5.83-1.23-8.57-.11-2.05.03-3.92.38-5.6.77-3.7 2.54-6.49 5.05-8.41 2.46-1.88 5.58-2.89 9.09-3.08.95-.05 1.94-.04 2.95.03-1.74-2.48-3.68-4.81-5.79-6.96-1.68-.29-3.28-.89-4.85-1.49-1.53-.58-3.02-1.14-4.34-1.22-4.68-.3-9.13.31-12.62.78-3.93.54-6.82.93-8.54-.3-2.31-1.65-1.88-4.55 2.19-10.24.54-.76 1.15-1.52 1.84-2.3-3.93-.91-8.03-1.39-12.24-1.39-4.95 0-9.74.67-14.3 1.91 1.02.81 1.88 1.63 2.61 2.48 2.91 3.4 3.62 7.06 2.76 10.86-1.42 6.3-7.22 12.28-8.24 13.3-.86 1.21-6.18 8.86-3.89 8.78 1.64-.06 3.86-1.12 6.16-2.23 2.05-.98 4.16-1.99 6.34-2.57 8.93-2.34 12.63-.12 13.83 3.79 1.05 3.41-.31 7.81-1.41 11.28-.54 1.72-1.09 3.5-1.57 5.21-.5 1.76-.96 3.56-1.35 5.36-.26 1.2-1.44 1.97-2.65 1.71-.2-.04-.38-.11-.55-.2h0c-.31 1.35-.56 2.59-.75 3.57l-23.15-6.52 39.5 11.12c1.17.33 2.96.85 4.43 1.28 2.8.81 3.97 1.15 4.69 1.18.31.01.57 0 1.01-.1.65-.15 1.66-.46 3.39-1.03l1.45-.49h0Zm8.82-2.84c.26-.08.52-.15.78-.23-.26.08-.52.15-.78.23h0Zm.81-.24c.26-.07.51-.15.77-.22-.26.07-.52.15-.77.22h0Zm4.84-1.27c.24-.06.47-.11.71-.16-.24.05-.47.11-.71.16h0Zm4.73-.94c.25-.04.49-.08.74-.11-.25.04-.49.07-.74.11h0Zm5.53-.56c.12 0 .25 0 .37-.01-.12 0-.25 0-.37.01h0Zm-56.53-5.13s0-.06 0-.1c0 .03 0 .06 0 .1h0Zm-34.91 34.54c-9.72-9.78-15.73-23.26-15.73-38.14 0-7.98 1.73-15.55 4.82-22.36.09.02.17.03.26.04 3.14.32 6.29.16 8.58.05 1.25-.06 2.2-.11 2.48-.06.02 0 .05.02.07.05.02.03.05.08.06.15.02.1.02.23 0 .39-.13.72-.75 1.67-2.16 2.76-2.57 1.99-4.47 4.12-5.55 6.43-1.17 2.48-1.39 5.1-.5 7.88.6 1.89 1.8 3.83 3.72 5.67.29.28.6.55.92.83-4.43 1.91-5.21 5.43-5.21 5.44-.38 1.53.36 3.08 1.7 3.77l12.72 6.61 21.48 12.24-27.45 8.34-.2-.09Z" fill-rule="evenodd" fill="rgba(119,218,248,1)" data-uid="o-ea35b0938d604c93bb89f9a902ad391e"></path></svg> -->
</g><path text="Flyza" fill="rgba(0, 0, 0, 1)" space="preserve" text-anchor="middle" offset="0.5" font-scale="contain" font-size="48" font-family="Playfair Display" transform="matrix(2.6582443714141846, 0, 0, 2.20230770111084, 331.8590393066406, 288.927734375)" font-style="normal" font-weight="700" data-fl-textpath="" data-uid="o-51479b1732944b7a8051301cae15bd32" d="M-30.432-33.984L-30.432-33.984Q-30.624-31.824 -30.696-29.808Q-30.768-27.792 -30.768-26.688L-30.768-26.688Q-30.768-25.632 -30.72-24.672Q-30.672-23.712 -30.624-23.04L-30.624-23.04L-31.728-23.04Q-32.352-26.784 -33.456-28.92Q-34.56-31.056 -36.168-31.968Q-37.776-32.88 -39.984-32.88L-39.984-32.88L-41.568-32.88Q-42.96-32.88 -43.68-32.64Q-44.4-32.4 -44.64-31.68Q-44.88-30.96 -44.88-29.472L-44.88-29.472L-44.88-5.376Q-44.88-3.504 -44.496-2.592Q-44.112-1.68 -43.008-1.392Q-41.904-1.104 -39.744-1.056L-39.744-1.056L-39.744 0Q-41.232-0.048 -43.584-0.096Q-45.936-0.144 -48.528-0.144L-48.528-0.144Q-50.592-0.144 -52.56-0.096Q-54.528-0.048 -56.112 0L-56.112 0L-56.112-0.96Q-54.576-1.056 -53.808-1.344Q-53.04-1.632 -52.776-2.496Q-52.512-3.36 -52.512-5.088L-52.512-5.088L-52.512-28.896Q-52.512-30.672 -52.776-31.512Q-53.04-32.352 -53.832-32.664Q-54.624-32.976 -56.112-33.024L-56.112-33.024L-56.112-33.984Q-53.52-33.936 -50.496-33.888Q-47.472-33.84 -44.784-33.84Q-42.096-33.84 -40.464-33.84L-40.464-33.84Q-38.256-33.84 -35.448-33.864Q-32.64-33.888 -30.432-33.984ZM-46.32-17.376L-37.584-17.376Q-37.584-17.376 -37.584-16.896Q-37.584-16.416 -37.584-16.416L-37.584-16.416L-46.32-16.416Q-46.32-16.416 -46.32-16.896Q-46.32-17.376 -46.32-17.376L-46.32-17.376ZM-37.488-23.712L-36.384-23.712Q-36.576-20.976 -36.552-19.536Q-36.528-18.096 -36.528-16.896L-36.528-16.896Q-36.528-15.696 -36.48-14.256Q-36.432-12.816 -36.24-10.08L-36.24-10.08L-37.344-10.08Q-37.632-11.76 -38.256-13.2Q-38.88-14.64 -40.08-15.528Q-41.28-16.416 -43.2-16.416L-43.2-16.416L-43.2-17.376Q-41.28-17.376 -40.128-18.432Q-38.976-19.488 -38.376-20.952Q-37.776-22.416 -37.488-23.712L-37.488-23.712ZM-18.768-37.584L-18.768-37.584L-18.768-4.464Q-18.768-2.448 -18.072-1.728Q-17.376-1.008 -15.696-1.008L-15.696-1.008L-15.696 0Q-16.608-0.048 -18.432-0.12Q-20.256-0.192 -22.128-0.192L-22.128-0.192Q-24-0.192 -25.896-0.12Q-27.792-0.048 -28.752 0L-28.752 0L-28.752-1.008Q-27.072-1.008 -26.376-1.728Q-25.68-2.448 -25.68-4.464L-25.68-4.464L-25.68-31.824Q-25.68-33.984 -26.328-35.016Q-26.976-36.048 -28.752-36.048L-28.752-36.048L-28.752-37.056Q-27.216-36.912 -25.776-36.912L-25.776-36.912Q-23.808-36.912 -22.032-37.08Q-20.256-37.248 -18.768-37.584ZM 9.84-24.816L 9.84-24.816L 9.84-23.856Q 8.928-23.616  8.112-22.728Q 7.296-21.84  6.528-19.728L 6.528-19.728L-0.24-0.72L-2.016 2.64L-12.48-21.12Q-13.296-22.992 -14.088-23.4Q-14.88-23.808-15.456-23.808L-15.456-23.808L-15.456-24.816Q-13.872-24.672 -12.168-24.6Q-10.464-24.528 -8.88-24.528L-8.88-24.528Q-6.912-24.528 -5.28-24.624Q-3.648-24.72 -2.208-24.816L-2.208-24.816L-2.208-23.808Q-3.168-23.808 -4.008-23.688Q-4.848-23.568 -5.16-23.016Q-5.472-22.464 -4.896-21.12L-4.896-21.12L 1.152-6.528L 0.72-6.24L 4.272-16.176Q 5.616-20.064  4.704-21.864Q 3.792-23.664  1.488-23.856L 1.488-23.856L 1.488-24.816Q 2.592-24.768  3.888-24.72Q 5.184-24.672  6.144-24.672L 6.144-24.672Q 7.104-24.672  8.16-24.72Q 9.216-24.768  9.84-24.816ZM-1.392-0.624L-0.24-0.72L-2.064 4.416Q-2.976 6.864 -4.176 7.824L-4.176 7.824Q-4.848 8.4 -5.904 8.712Q-6.96 9.024 -8.352 9.024L-8.352 9.024Q-9.504 9.024 -10.728 8.64Q-11.952 8.256 -12.768 7.392Q-13.584 6.528 -13.584 5.184L-13.584 5.184Q-13.584 3.696 -12.528 2.808Q-11.472 1.92 -9.744 1.92L-9.744 1.92Q-8.16 1.92 -7.152 2.688Q-6.144 3.456 -6.144 4.944L-6.144 4.944Q-6.144 5.904 -6.744 6.768Q-7.344 7.632 -8.544 8.064L-8.544 8.064Q-8.304 8.112 -7.968 8.112Q-7.632 8.112 -7.44 8.112L-7.44 8.112Q-6 8.112 -4.896 7.2Q-3.792 6.288 -3.072 4.32L-3.072 4.32L-1.392-0.624ZM 31.44-25.056L 31.44-25.056L 19.44-0.72L 21.936-0.72Q 23.808-0.72  25.464-1.512Q 27.12-2.304  28.248-4.176Q 29.376-6.048  29.616-9.312L 29.616-9.312L 30.624-9.312Q 30.624-5.808  30.672-3.576Q 30.72-1.344  30.816 0.192L 30.816 0.192Q 28.656 0.096  26.304 0.048Q 23.952 0  21.6 0L 21.6 0Q 19.152 0  16.56 0.072Q 13.968 0.144  11.616 0.24L 11.616 0.24L 23.616-24.096L 20.928-24.096Q 19.008-24.096  17.4-23.304Q 15.792-22.512  14.76-20.616Q 13.728-18.72  13.44-15.504L 13.44-15.504L 12.432-15.504Q 12.432-19.056  12.384-21.264Q 12.336-23.472  12.24-25.008L 12.24-25.008Q 14.448-24.912  16.8-24.864Q 19.152-24.816  21.456-24.816L 21.456-24.816Q 23.952-24.816  26.52-24.888Q 29.088-24.96  31.44-25.056ZM 40.368 0.336L 40.368 0.336Q 37.152 0.336  35.712-1.344Q 34.272-3.024  34.272-5.424L 34.272-5.424Q 34.272-7.488  35.208-8.784Q 36.144-10.08  37.632-10.92Q 39.12-11.76  40.776-12.312Q 42.432-12.864  43.944-13.416Q 45.456-13.968  46.392-14.688Q 47.328-15.408  47.328-16.512L 47.328-16.512L 47.328-20.256Q 47.328-21.504  46.92-22.488Q 46.512-23.472  45.672-24Q 44.832-24.528  43.488-24.528L 43.488-24.528Q 42.528-24.528  41.568-24.264Q 40.608-24  39.984-23.376L 39.984-23.376Q 41.328-22.896  42.072-21.912Q 42.816-20.928  42.816-19.68L 42.816-19.68Q 42.816-18.048  41.688-17.088Q 40.56-16.128  39.024-16.128L 39.024-16.128Q 37.296-16.128  36.408-17.208Q 35.52-18.288  35.52-19.824L 35.52-19.824Q 35.52-21.216  36.216-22.128Q 36.912-23.04  38.16-23.856L 38.16-23.856Q 39.504-24.624  41.4-25.056Q 43.296-25.488  45.504-25.488L 45.504-25.488Q 47.712-25.488  49.488-25.032Q 51.264-24.576  52.464-23.376L 52.464-23.376Q 53.568-22.272  53.904-20.664Q 54.24-19.056  54.24-16.608L 54.24-16.608L 54.24-3.552Q 54.24-2.4  54.48-1.92Q 54.72-1.44  55.296-1.44L 55.296-1.44Q 55.776-1.44  56.208-1.68Q 56.64-1.92  57.024-2.256L 57.024-2.256L 57.504-1.44Q 56.496-0.576  55.176-0.12Q 53.856 0.336  52.224 0.336L 52.224 0.336Q 49.344 0.336  48.408-0.84Q 47.472-2.016  47.424-3.552L 47.424-3.552Q 46.224-1.584  44.472-0.624Q 42.72 0.336  40.368 0.336ZM 44.064-2.736L 44.064-2.736Q 44.976-2.736  45.768-3.168Q 46.56-3.6  47.328-4.704L 47.328-4.704L 47.328-14.544Q 46.752-13.584  45.72-12.936Q 44.688-12.288  43.608-11.544Q 42.528-10.8  41.808-9.648Q 41.088-8.496  41.088-6.576L 41.088-6.576Q 41.088-4.512  41.952-3.624Q 42.816-2.736  44.064-2.736Z"></path></svg>