<svg xmlns="http://www.w3.org/2000/svg" width="17" height="16" viewBox="0 0 17 16" fill="none" class="injected-svg" data-src="/static/media/plane-icon.7e298f2e5964ce9d7d52edf6927851f7.svg" xmlns:xlink="http://www.w3.org/1999/xlink" role="img">
<path d="M6.22026 16C6.52874 16 6.81152 15.84 6.9829 15.5874L11.0017 9.26316L15.7147 9.26316C16.4259 9.26316 17 8.69895 17 8C17 7.30105 16.4259 6.73684 15.7147 6.73684L11.0017 6.73684L6.9829 0.412631C6.82009 0.16 6.52874 -4.57713e-07 6.22026 -4.71197e-07C5.62043 -4.97417e-07 5.18342 0.572631 5.36337 1.14526L7.14571 6.73684L2.43278 6.73684L1.27597 5.22105C1.19885 5.11158 1.07032 5.05263 0.933218 5.05263L0.427648 5.05263C0.144872 5.05263 -0.0607798 5.32211 0.01634 5.59158L0.718994 8L0.0163398 10.4084C-0.06078 10.6779 0.144872 10.9474 0.427648 10.9474L0.933218 10.9474C1.07032 10.9474 1.19885 10.8884 1.27597 10.7789L2.43278 9.26316L7.14571 9.26316L5.36336 14.8547C5.18342 15.4274 5.62043 16 6.22026 16Z" fill="black"></path>
</svg>